<svg xmlns="http://www.w3.org/2000/svg" width="9.428" height="9.732" viewBox="0 0 9.428 9.732">
  <path id="bar-chart-svgrepo-com" d="M9.124,9.732H6.995a.3.3,0,0,1-.3-.3V.3a.3.3,0,0,1,.3-.3H9.124a.3.3,0,0,1,.3.3V9.428A.3.3,0,0,1,9.124,9.732ZM8.82.608H7.3V9.124H8.82ZM5.778,9.732H3.65a.3.3,0,0,1-.3-.3V5.17a.3.3,0,0,1,.3-.3H5.778a.3.3,0,0,1,.3.3V9.428A.3.3,0,0,1,5.778,9.732Zm-.3-4.258H3.954v3.65H5.474ZM2.433,9.732H.3a.3.3,0,0,1-.3-.3V3.345a.3.3,0,0,1,.3-.3H2.433a.3.3,0,0,1,.3.3V9.428A.3.3,0,0,1,2.433,9.732Zm-.3-6.083H.608V9.124H2.129Z" fill="#485767"/>
</svg>
