<svg xmlns="http://www.w3.org/2000/svg" width="22.85" height="22.85" viewBox="0 0 22.85 22.85">
  <g id="error-65" transform="translate(-67.767 -67.767)">
    <path id="Path_1014" data-name="Path 1014" d="M104.242,85.333a1.857,1.857,0,0,1,2.1,2.1v2.1H85.333v-2.1a1.857,1.857,0,0,1,2.1-2.1h16.807Zm-12.605,2.1a1.031,1.031,0,0,0-.315-.756,1,1,0,0,0-.735-.294,1.007,1.007,0,0,0-1.05,1.05,1,1,0,0,0,.294.735,1.031,1.031,0,0,0,.756.315,1.077,1.077,0,0,0,1.05-1.05Zm2.836.735a.964.964,0,0,0,.315-.735,1.031,1.031,0,0,0-.315-.756,1,1,0,0,0-.735-.294,1.007,1.007,0,0,0-1.05,1.05,1,1,0,0,0,.294.735,1.031,1.031,0,0,0,.756.315A.964.964,0,0,0,94.472,88.17Zm2.122,14.706a.964.964,0,0,1-.735.315,1.031,1.031,0,0,1-.756-.315,1,1,0,0,1-.294-.735,1.007,1.007,0,0,1,1.05-1.05,1,1,0,0,1,.735.294,1.032,1.032,0,0,1,.315.756A.964.964,0,0,1,96.594,102.876Zm-9.16-16.492a1.007,1.007,0,0,0-1.05,1.05,1,1,0,0,0,.294.735,1.032,1.032,0,0,0,.756.315,1.077,1.077,0,0,0,1.05-1.05,1.031,1.031,0,0,0-.315-.756A1,1,0,0,0,87.434,86.384Z" transform="translate(-16.646 -16.646)" fill="#f97316"/>
    <path id="Path_1015" data-name="Path 1015" d="M87.6,90.116H70.788A2.274,2.274,0,0,1,68.267,87.6V70.788a2.274,2.274,0,0,1,2.521-2.521H87.6a2.274,2.274,0,0,1,2.521,2.521V87.6A2.274,2.274,0,0,1,87.6,90.117ZM69.107,73.309V87.6c0,1.163.518,1.681,1.681,1.681H87.6c1.163,0,1.681-.518,1.681-1.681V73.309Zm0-.84H89.276V70.788c0-1.163-.518-1.681-1.681-1.681H70.788c-1.163,0-1.681.518-1.681,1.681v1.681Z" fill="#071631" stroke="#071631" stroke-width="1"/>
    <path id="Path_1016" data-name="Path 1016" d="M479.56,365.921a.84.84,0,0,1-.84-.84V359.24a.84.84,0,1,1,1.681,0v5.841A.84.84,0,0,1,479.56,365.921Z" transform="translate(-400.347 -282.99)" fill="#f97316"/>
  </g>
</svg>
