<svg xmlns="http://www.w3.org/2000/svg" width="19.383" height="14.375" viewBox="0 0 19.383 14.375">
  <path id="Path_596" data-name="Path 596" d="M1285.35,67.837a.939.939,0,0,1-.66,1.6.958.958,0,0,1-.67-.275l-.89-.9V72.25a.925.925,0,0,1-.28.663.936.936,0,0,1-.66.275.93.93,0,0,1-.94-.937V68.266l-.9.9a.935.935,0,0,1-.66.275.943.943,0,0,1-.67-1.6l2.5-2.5a.929.929,0,0,1,.31-.2.9.9,0,0,1,.36-.072.976.976,0,0,1,.36.072,1,1,0,0,1,.3.2Zm-2.85-9.024a7.214,7.214,0,0,0-6.33,3.779,5.3,5.3,0,0,0-2.13.211,5.211,5.211,0,0,0-1.87,1.035,5.292,5.292,0,0,0-1.86,3.764,5.452,5.452,0,0,0,.33,2.117,5.311,5.311,0,0,0,4.99,3.469h2.18a.938.938,0,1,0,0-1.875h-2.18a3.437,3.437,0,0,1-.15-6.871,7.423,7.423,0,0,0-.17,1.559.94.94,0,0,0,1.88,0,5.341,5.341,0,0,1,.49-2.225,5.326,5.326,0,0,1,3.39-2.886,5.314,5.314,0,0,1,6.48,6.774.9.9,0,0,0-.05.363,1.077,1.077,0,0,0,.1.353.922.922,0,0,0,.23.288.937.937,0,0,0,.31.18.962.962,0,0,0,.37.044.948.948,0,0,0,.64-.323.968.968,0,0,0,.18-.318,7.184,7.184,0,0,0,.27-3.352,7.2,7.2,0,0,0-3.83-5.3A7.179,7.179,0,0,0,1282.5,58.813Z" transform="translate(-1270.305 -58.813)" fill="#fff"/>
</svg>
