<svg xmlns="http://www.w3.org/2000/svg" width="12.723" height="12.723" viewBox="0 0 12.723 12.723">
  <path id="time-quarter-past-svgrepo-com" d="M12.723,6.361a.53.53,0,1,1-1.06,0,5.307,5.307,0,0,0-5.3-5.3.53.53,0,1,1,0-1.06A6.368,6.368,0,0,1,12.723,6.361Zm-4.241.53a.53.53,0,0,0,0-1.06H7.275a1.06,1.06,0,0,0-.383-.383V3.711a.53.53,0,0,0-1.06,0V5.448A1.057,1.057,0,1,0,7.275,6.892ZM.969,3.6a.53.53,0,1,0,.53.53A.53.53,0,0,0,.969,3.6ZM1.06,6.361a.53.53,0,1,0-.53.53A.53.53,0,0,0,1.06,6.361Zm5.3,5.3a.53.53,0,1,0,.53.53A.53.53,0,0,0,6.361,11.663ZM2.238,1.7a.53.53,0,1,0,.53.53.53.53,0,0,0-.53-.53ZM4.124.446a.53.53,0,1,0,.53.53.53.53,0,0,0-.53-.53ZM.969,8.066a.53.53,0,1,0,.53.53A.53.53,0,0,0,.969,8.066Zm1.269,1.9a.53.53,0,1,0,.53.53A.53.53,0,0,0,2.238,9.963Zm1.886,1.254a.53.53,0,1,0,.53.53.53.53,0,0,0-.53-.53Zm7.631-3.151a.53.53,0,1,0,.53.53A.53.53,0,0,0,11.754,8.066Zm-1.269,1.9a.53.53,0,1,0,.53.53A.53.53,0,0,0,10.485,9.963ZM8.6,11.217a.53.53,0,1,0,.53.53.53.53,0,0,0-.53-.53Z" fill="#f12246"/>
</svg>
