<svg xmlns="http://www.w3.org/2000/svg" width="9.422" height="9.422" viewBox="0 0 9.422 9.422">
  <path id="Path_35" data-name="Path 35" d="M3.346,6.711c1,0,1.424-.757,1.8-1.426s.708-1.266,1.566-1.266S7.9,4.606,8.277,5.285s.8,1.426,1.8,1.426h1.346V6.038H10.076c-.576,0-.836-.411-1.211-1.082a2.418,2.418,0,0,0-2.154-1.61,2.418,2.418,0,0,0-2.154,1.61c-.375.671-.635,1.082-1.211,1.082H2.673V2H2v8.749a.673.673,0,0,0,.673.673h8.749v-.673h-.673V8.73h-.673v2.019H8.73V8.057H8.057v2.692H6.711V6.711H6.038v4.038H4.692V8.057H4.019v2.692H2.673V6.711Z" transform="translate(-2 -2)" fill="#485767"/>
</svg>
