<svg xmlns="http://www.w3.org/2000/svg" width="12.16" height="10.809" viewBox="0 0 12.16 10.809">
  <path id="line-chart-svgrepo-com" d="M8.4,6.027a.675.675,0,1,1,.236.513A.676.676,0,0,1,8.4,6.027ZM9.08,4A2.027,2.027,0,0,0,7.324,7.038L5.758,8.865a2.027,2.027,0,1,0,1.026.879L8.349,7.917a2.03,2.03,0,0,0,1.766-.148l1.117.931A2.027,2.027,0,1,0,12.1,7.662l-1.117-.931A2.028,2.028,0,0,0,9.08,4Zm3.534,4.972a.676.676,0,1,1-.156.432A.673.673,0,0,1,12.614,8.972ZM4.351,10.756a.676.676,0,1,1,.676.676A.676.676,0,0,1,4.351,10.756Zm-.676,2.7a.676.676,0,0,0,0,1.351H14.485a.676.676,0,1,0,0-1.351Z" transform="translate(-3 -4)" fill="#485767" fill-rule="evenodd"/>
</svg>