<svg xmlns="http://www.w3.org/2000/svg" width="27.508" height="27.508" viewBox="0 0 27.508 27.508">
  <g id="transaction-data" transform="translate(-26.624 -26.112)">
    <path id="Path_1007" data-name="Path 1007" d="M40.378,26.112a14.152,14.152,0,0,0-2.823.29,1.161,1.161,0,0,0,.478,2.273,11.624,11.624,0,0,1,2.345-.246,11.431,11.431,0,1,1-9.483,5.038,11.155,11.155,0,0,1,1.289-1.578,1.157,1.157,0,0,0-1.665-1.607,14.044,14.044,0,0,0-1.549,1.9,13.756,13.756,0,1,0,11.408-6.066Z" fill="#101828"/>
    <path id="Path_1008" data-name="Path 1008" d="M218.093,277.139a1.162,1.162,0,0,0,1.158,1.158h14.376a1.155,1.155,0,0,0,.825-1.969l-3.735-3.735a1.157,1.157,0,0,0-1.636,1.636l1.766,1.766H219.266A1.144,1.144,0,0,0,218.093,277.139Zm16.693,3.837a1.162,1.162,0,0,0-1.158-1.158H219.252a1.155,1.155,0,0,0-.825,1.969l3.735,3.735a1.136,1.136,0,0,0,.825.333,1.2,1.2,0,0,0,.825-.333,1.162,1.162,0,0,0,0-1.636l-1.766-1.766h11.582A1.14,1.14,0,0,0,234.786,280.975Z" transform="translate(-186.055 -239.184)" fill="#0847cc"/>
  </g>
</svg>
