<svg id="equipment-failure" xmlns="http://www.w3.org/2000/svg" width="23.997" height="23.731" viewBox="0 0 23.997 23.731">
  <path id="Path_1010" data-name="Path 1010" d="M63.932,60.362v-2a3.577,3.577,0,0,0-3.579-3.576H43.514a3.577,3.577,0,0,0-3.579,3.576v2a3.549,3.549,0,0,0,1.132,2.6,3.549,3.549,0,0,0-1.132,2.6v2a3.549,3.549,0,0,0,1.132,2.6,3.549,3.549,0,0,0-1.132,2.6v2a3.577,3.577,0,0,0,3.579,3.589h9.279a.975.975,0,1,0,0-1.95H43.514a1.626,1.626,0,0,1-1.627-1.625V72.767a1.626,1.626,0,0,1,1.627-1.625h9.643a.975.975,0,1,0,0-1.95H43.514a1.626,1.626,0,0,1-1.627-1.625v-2a1.626,1.626,0,0,1,1.627-1.625H60.353a1.626,1.626,0,0,1,1.627,1.625v2a1.626,1.626,0,0,1-1.627,1.625.975.975,0,1,0,0,1.95,1.626,1.626,0,0,1,1.627,1.625v2A1.626,1.626,0,0,1,60.353,76.4a.975.975,0,1,0,0,1.95,3.577,3.577,0,0,0,3.579-3.576v-2a3.548,3.548,0,0,0-1.132-2.6,3.549,3.549,0,0,0,1.132-2.6v-2a3.548,3.548,0,0,0-1.132-2.6A3.549,3.549,0,0,0,63.932,60.362ZM43.514,61.988a1.626,1.626,0,0,1-1.627-1.625v-2a1.626,1.626,0,0,1,1.627-1.625H60.353A1.626,1.626,0,0,1,61.98,58.36v2a1.626,1.626,0,0,1-1.627,1.625Z" transform="translate(-39.935 -54.784)" fill="#101828"/>
  <path id="Path_1011" data-name="Path 1011" d="M258.13,190.976H248.9a.975.975,0,1,0,0,1.95h9.232a.975.975,0,0,0,0-1.95ZM245,191.262a.962.962,0,0,0-.208,1.066.832.832,0,0,0,.208.3.975.975,0,0,0,1.066.208,1.028,1.028,0,0,0,.234-.208.832.832,0,0,0,.208-.312.962.962,0,0,0-.208-1.053A1.014,1.014,0,0,0,245,191.262Zm0,7.425a.962.962,0,0,0-.208,1.066.832.832,0,0,0,.208.312.975.975,0,0,0,1.066.208,1.028,1.028,0,0,0,.234-.208.832.832,0,0,0,.208-.312.962.962,0,0,0-.208-1.066A1.014,1.014,0,0,0,245,198.687Zm0,7.126a.962.962,0,0,0-.208,1.066.832.832,0,0,0,.208.312.975.975,0,0,0,1.066.208,1.028,1.028,0,0,0,.234-.208.832.832,0,0,0,.247-.26.962.962,0,0,0-.247-1.118A1.014,1.014,0,0,0,245,205.812Zm11.352,1.664a.975.975,0,0,0,.975-.975v-7.555a.975.975,0,0,0-1.95,0V206.5A.975.975,0,0,0,256.348,207.477Z" transform="translate(-239.499 -187.517)" fill="#ff2d55"/>
  <path id="Path_1012" data-name="Path 1012" d="M653.076,888.084m-1.3,0a1.3,1.3,0,1,0,1.3-1.3A1.3,1.3,0,0,0,651.776,888.084Z" transform="translate(-636.224 -865.654)" fill="#ff2d55"/>
</svg>
