<svg xmlns="http://www.w3.org/2000/svg" width="10.097" height="11.168" viewBox="0 0 10.097 11.168">
  <g id="trash-bin-minimalistic-svgrepo-com" transform="translate(-3 -1.5)">
    <path id="Path_39" data-name="Path 39" d="M9.171,3.07a1.606,1.606,0,0,1,3.028,0" transform="translate(-2.636)" fill="none" stroke="#485767" stroke-linecap="round" stroke-width="1"/>
    <path id="Path_40" data-name="Path 40" d="M12.6,6H3.5" transform="translate(0 -1.859)" fill="none" stroke="#485767" stroke-linecap="round" stroke-width="1"/>
    <path id="Path_41" data-name="Path 41" d="M12.234,12.192c-.095,1.421-.142,2.131-.6,2.564s-1.175.433-2.6.433H8.617c-1.424,0-2.136,0-2.6-.433s-.51-1.143-.6-2.564L5.167,8.5m7.314,0-.107,1.605" transform="translate(-0.775 -3.022)" fill="none" stroke="#485767" stroke-linecap="round" stroke-width="1"/>
    <path id="Path_42" data-name="Path 42" d="M9.5,11l.268,2.676" transform="translate(-2.789 -4.184)" fill="none" stroke="#485767" stroke-linecap="round" stroke-width="1"/>
    <path id="Path_43" data-name="Path 43" d="M14.268,11,14,13.676" transform="translate(-4.881 -4.184)" fill="none" stroke="#485767" stroke-linecap="round" stroke-width="1"/>
  </g>
</svg>