<svg xmlns="http://www.w3.org/2000/svg" width="29.683" height="23.424" viewBox="0 0 29.683 23.424">
  <g id="user-149" transform="translate(-79.898 -135.4)">
    <path id="Path_1018" data-name="Path 1018" d="M100.161,289.5a3.375,3.375,0,1,0,3.375-3.375A3.375,3.375,0,0,0,100.161,289.5Zm-2.67,8.4Zm12.091.045v0Zm0-.01v0Zm-2.985-4.344-.277,0a.824.824,0,0,0-.329.083s-.221.128-.422.214a5.2,5.2,0,0,1-4.039.007,4.715,4.715,0,0,1-.432-.218.735.735,0,0,0-.329-.083l-.273,0a3.443,3.443,0,0,0-2.6,2.186,5.683,5.683,0,0,0-.4,2.123.649.649,0,0,0,.332.515,11.227,11.227,0,0,0,5.71,1.21,11.227,11.227,0,0,0,5.71-1.21.677.677,0,0,0,.332-.519,5.519,5.519,0,0,0-.391-2.089,3.434,3.434,0,0,0-2.587-2.22Zm2.985,4.316v0Zm0,.017v0Zm0,0-23.635-5.274a3.374,3.374,0,0,0,3.313-2.739,5.941,5.941,0,0,1-.754-2.829,3.373,3.373,0,1,0-2.559,5.568Zm-1.031,4.2a5.907,5.907,0,0,1,2.338-2.94,5.247,5.247,0,0,1-3.317-.242,4.71,4.71,0,0,1-.432-.218.734.734,0,0,0-.329-.083l-.273,0a3.443,3.443,0,0,0-2.6,2.186,5.683,5.683,0,0,0-.4,2.123.649.649,0,0,0,.332.515,9.911,9.911,0,0,0,4.084,1.131A8.749,8.749,0,0,1,84.916,296.846Z" transform="translate(0 -145.295)" fill="#aed7ff"/>
    <path id="Path_1019" data-name="Path 1019" d="M305.405,233.512l.042-.028a.362.362,0,0,0,.052-.073,8.1,8.1,0,0,0-.647-2.853l-.062-.145a4.539,4.539,0,0,0-3.424-2.732l-.374.01s-.059.017-.083.028a7.564,7.564,0,0,1-.733.4,8.993,8.993,0,0,1-3.562.875,9.174,9.174,0,0,1-3.614-.574,8.161,8.161,0,0,1-.747-.335,5.041,5.041,0,0,0-2.8,3.061,8.148,8.148,0,0,0-.46,3.092.781.781,0,0,0,.135.384,20.2,20.2,0,0,0,7.733,1.02C302.549,235.417,305.378,233.533,305.405,233.512ZM297.192,216.5a4.858,4.858,0,0,0-4.8,5.734,4.455,4.455,0,1,0,7.321-5.025A4.807,4.807,0,0,0,297.192,216.5Z" transform="translate(-201.865 -78.295)" fill="#aed7ff"/>
    <path id="Path_1020" data-name="Path 1020" d="M215.5,169.063c-6.007,0-9.092-1.816-9.4-2.006a1.56,1.56,0,0,1-.806-1.3v-.01a9.823,9.823,0,0,1,.685-3.573,6.026,6.026,0,0,1,4.593-3.839l.066,0,.436,0a1.731,1.731,0,0,1,.806.2,7.055,7.055,0,0,0,.636.322,7.67,7.67,0,0,0,3.005.6,7.568,7.568,0,0,0,3.016-.609,6.828,6.828,0,0,0,.619-.311l.017-.01a1.882,1.882,0,0,1,.785-.2l.484,0,.038.007a6.056,6.056,0,0,1,4.562,3.891,9.659,9.659,0,0,1,.657,3.51v.024h.014v.014H225.7v.007h.014v.021h0v.017H225.7v0h0a1.675,1.675,0,0,1-.8,1.235C224.623,167.23,221.538,169.063,215.5,169.063Zm-9.1-3.292a.522.522,0,0,0,.235.322l.041.024c.028.017,2.974,1.843,8.822,1.843s8.795-1.826,8.826-1.843l.035-.021a.638.638,0,0,0,.246-.335,8.568,8.568,0,0,0-.567-3.1l-.021-.045-.014-.048a4.93,4.93,0,0,0-3.642-3.14l-.4,0a.842.842,0,0,0-.259.066,7.842,7.842,0,0,1-.726.363,8.642,8.642,0,0,1-3.448.7,8.769,8.769,0,0,1-3.438-.692c-.353-.152-.73-.37-.747-.377a.755.755,0,0,0-.239-.059h-.01l-.4,0a4.986,4.986,0,0,0-3.669,3.109l-.014.042-.017.038a8.7,8.7,0,0,0-.588,3.147l0,0h0S206.4,165.767,206.4,165.77Zm9.113-7.487a5.942,5.942,0,1,1,5.941-5.941A5.95,5.95,0,0,1,215.51,158.283Zm0-10.78a4.838,4.838,0,1,0,4.838,4.838A4.843,4.843,0,0,0,215.51,147.5Z" transform="translate(-121.062 -10.62)" fill="#071631"/>
    <path id="Path_1021" data-name="Path 1021" d="M204.877,158.824c-6.1,0-9.258-1.85-9.6-2.061a1.925,1.925,0,0,1-.986-1.636,10.276,10.276,0,0,1,.709-3.714,6.442,6.442,0,0,1,4.9-4.077l.09-.007.457-.007a2.129,2.129,0,0,1,1,.252c.007,0,.329.187.6.3a7.3,7.3,0,0,0,2.853.571,7.181,7.181,0,0,0,2.864-.578c.27-.114.578-.29.581-.29l.024-.014a2.228,2.228,0,0,1,.968-.242l.578.014a6.41,6.41,0,0,1,4.866,4.133,9.8,9.8,0,0,1,.667,3.285h.017l.014.806-.076,0a2.086,2.086,0,0,1-.934,1.2C214.142,156.97,211,158.824,204.877,158.824Zm-4.4-10.742h-.014l-.481.007a5.614,5.614,0,0,0-4.257,3.576l-.014.041a9.51,9.51,0,0,0-.65,3.427,1.177,1.177,0,0,0,.605.968c.339.211,3.327,1.957,9.217,1.957,5.907,0,8.881-1.75,9.2-1.951a1.321,1.321,0,0,0,.623-.923v-.052a9.356,9.356,0,0,0-.626-3.379l-.017-.048a5.667,5.667,0,0,0-4.254-3.621h-.01l-.46,0a1.475,1.475,0,0,0-.6.152c-.021.01-.356.2-.667.335a7.913,7.913,0,0,1-3.164.64,8.039,8.039,0,0,1-3.154-.633c-.315-.135-.674-.342-.678-.342A1.391,1.391,0,0,0,200.475,148.082Zm4.4,9.642c-5.955,0-9-1.885-9.026-1.9l-.031-.017a.857.857,0,0,1-.356-.394l-.073-.035.007-.252c0-.073.007-.142.01-.211l.007-.145a8.609,8.609,0,0,1,.609-2.933l.01-.028a5.346,5.346,0,0,1,3.977-3.372l.052,0,.4,0a1.079,1.079,0,0,1,.436.107c.042.024.391.221.709.36a8.4,8.4,0,0,0,3.289.661,8.256,8.256,0,0,0,3.3-.667,7.339,7.339,0,0,0,.688-.346,1.167,1.167,0,0,1,.45-.114l.463.01a5.292,5.292,0,0,1,3.949,3.413l.01.031a8.811,8.811,0,0,1,.609,3.254v.035l-.007.035a.989.989,0,0,1-.439.616l-.021.014C213.876,155.839,210.847,157.724,204.877,157.724Zm-7.927-2.2a19.753,19.753,0,0,0,7.927,1.439c5.689,0,8.594-1.767,8.622-1.788l.042-.024a.319.319,0,0,0,.055-.069,8.215,8.215,0,0,0-.529-2.877l-.055-.145a4.529,4.529,0,0,0-3.31-2.867l-.374,0s-.059.017-.083.024c-.1.055-.429.239-.747.374a8.981,8.981,0,0,1-3.593.726,9.126,9.126,0,0,1-3.586-.723c-.329-.142-.667-.332-.768-.387a.445.445,0,0,0-.083-.017l-.367,0a4.579,4.579,0,0,0-3.334,2.843l-.055.135a8.285,8.285,0,0,0-.54,2.749ZM213.613,155.051Zm-8.726-7.007a6.322,6.322,0,1,1,6.322-6.322A6.329,6.329,0,0,1,204.888,148.044Zm0-11.88a5.561,5.561,0,1,0,5.561,5.561A5.568,5.568,0,0,0,204.888,136.164Zm0,10.78a5.222,5.222,0,1,1,5.222-5.222A5.229,5.229,0,0,1,204.888,146.944Zm0-9.68a4.458,4.458,0,1,0,4.458,4.458A4.462,4.462,0,0,0,204.888,137.264Z" transform="translate(-110.44)" fill="#071631"/>
  </g>
</svg>
